<?xml version="1.0" standalone="no"?>
<!DOCTYPE svg PUBLIC "-//W3C//DTD SVG 20010904//EN"
 "http://www.w3.org/TR/2001/REC-SVG-20010904/DTD/svg10.dtd">
<svg version="1.0" xmlns="http://www.w3.org/2000/svg"
 width="3671.000000pt" height="2353.000000pt" viewBox="0 0 3671.000000 2353.000000"
 preserveAspectRatio="xMidYMid meet">

<g transform="translate(0.000000,2353.000000) scale(0.100000,-0.100000)"
fill="#ed1b23" stroke="none">
<path d="M10655 23069 c-88 -5 -176 -13 -195 -18 -38 -11 -306 -31 -406 -31
-34 0 -90 -9 -125 -20 -35 -10 -116 -23 -180 -28 -66 -6 -128 -16 -145 -25
-16 -8 -69 -18 -119 -22 -49 -4 -103 -13 -120 -20 -16 -6 -75 -17 -130 -24
-55 -7 -120 -20 -145 -28 -25 -8 -84 -21 -132 -27 -48 -7 -93 -18 -101 -25 -8
-6 -48 -18 -88 -26 -41 -8 -92 -20 -114 -28 -22 -8 -71 -20 -109 -26 -38 -7
-82 -19 -97 -26 -15 -8 -46 -18 -70 -21 -24 -4 -66 -18 -94 -31 -27 -12 -61
-23 -73 -23 -13 0 -38 -6 -55 -14 -18 -8 -43 -17 -57 -19 -97 -21 -128 -30
-150 -41 -14 -8 -45 -19 -70 -26 -25 -6 -52 -18 -60 -25 -8 -8 -35 -18 -58
-24 -24 -5 -51 -16 -61 -25 -10 -9 -26 -16 -37 -16 -10 0 -50 -12 -89 -26 -38
-14 -86 -30 -105 -36 -19 -5 -42 -16 -50 -23 -20 -17 -159 -72 -204 -80 -19
-4 -41 -13 -47 -21 -7 -8 -31 -19 -55 -25 -23 -6 -50 -20 -60 -30 -9 -10 -24
-19 -33 -19 -9 0 -41 -12 -71 -26 -164 -77 -268 -127 -290 -139 -64 -35 -170
-85 -179 -85 -6 0 -22 -11 -37 -25 -15 -14 -35 -25 -44 -25 -9 0 -35 -12 -56
-26 -21 -15 -68 -42 -104 -61 -36 -19 -87 -48 -115 -64 -27 -16 -66 -36 -85
-45 -19 -9 -45 -25 -59 -35 -13 -10 -31 -19 -41 -19 -9 0 -25 -9 -36 -21 -10
-12 -37 -31 -58 -43 -22 -11 -60 -33 -85 -48 -25 -15 -61 -34 -78 -43 -18 -8
-33 -20 -33 -25 0 -5 -17 -19 -37 -30 -21 -12 -59 -35 -85 -53 -26 -18 -70
-45 -99 -62 -28 -16 -64 -42 -80 -57 -17 -16 -36 -28 -43 -28 -8 0 -27 -11
-42 -24 -75 -64 -163 -130 -204 -154 -25 -14 -67 -45 -95 -68 -27 -23 -61 -47
-75 -54 -14 -7 -31 -21 -37 -30 -7 -10 -36 -34 -65 -53 -29 -19 -62 -45 -73
-57 -11 -13 -43 -38 -72 -56 -29 -19 -67 -49 -85 -67 -18 -18 -75 -68 -126
-111 -50 -42 -92 -81 -92 -86 0 -7 -84 -73 -115 -91 -32 -17 -542 -524 -751
-745 -151 -160 -173 -185 -204 -230 -33 -47 -143 -174 -211 -244 -30 -30 -61
-67 -69 -81 -27 -47 -67 -103 -101 -140 -19 -20 -52 -63 -74 -95 -22 -33 -43
-61 -48 -62 -4 -2 -24 -29 -44 -60 -48 -73 -92 -131 -121 -160 -12 -12 -22
-27 -22 -33 0 -11 -46 -78 -67 -95 -7 -6 -19 -25 -26 -43 -7 -17 -32 -55 -55
-84 -24 -29 -65 -88 -94 -132 -28 -44 -61 -96 -74 -116 -13 -19 -24 -40 -24
-45 0 -6 -11 -21 -25 -34 -14 -13 -25 -28 -25 -34 0 -11 -42 -78 -78 -126 -10
-14 -24 -40 -31 -57 -8 -18 -17 -33 -21 -33 -4 0 -29 -42 -54 -92 -26 -51 -60
-113 -76 -138 -16 -25 -34 -56 -40 -70 -16 -37 -18 -41 -49 -90 -29 -45 -75
-133 -146 -282 -20 -43 -41 -80 -46 -83 -4 -3 -14 -25 -20 -48 -6 -23 -19 -52
-30 -65 -10 -14 -19 -32 -19 -42 0 -10 -9 -28 -19 -42 -11 -13 -36 -64 -56
-113 -21 -49 -43 -98 -50 -109 -7 -12 -18 -38 -24 -58 -7 -20 -18 -42 -26 -48
-7 -6 -17 -26 -21 -43 -3 -18 -17 -52 -30 -77 -13 -25 -24 -54 -24 -66 0 -12
-9 -32 -19 -46 -11 -13 -24 -43 -31 -67 -6 -23 -20 -57 -31 -74 -10 -18 -19
-42 -19 -54 0 -12 -11 -43 -25 -69 -14 -26 -25 -53 -25 -60 0 -7 -11 -34 -25
-60 -14 -26 -25 -55 -25 -66 0 -10 -11 -45 -25 -78 -14 -33 -25 -70 -25 -82 0
-13 -9 -40 -20 -60 -11 -20 -25 -58 -31 -85 -7 -26 -20 -64 -29 -83 -9 -19
-20 -59 -23 -88 -4 -30 -15 -64 -27 -79 -11 -14 -20 -40 -20 -57 0 -17 -11
-52 -25 -78 -14 -26 -25 -58 -25 -72 0 -14 -11 -58 -24 -98 -13 -40 -26 -101
-30 -136 -4 -34 -16 -81 -26 -105 -11 -23 -20 -53 -20 -67 0 -14 -9 -44 -20
-68 -11 -24 -25 -85 -31 -135 -6 -51 -19 -112 -29 -137 -9 -25 -20 -78 -24
-118 -3 -40 -15 -90 -25 -110 -10 -20 -21 -66 -24 -102 -3 -36 -13 -84 -21
-106 -8 -23 -20 -111 -26 -195 -8 -95 -18 -163 -27 -177 -9 -14 -18 -77 -24
-169 -6 -90 -18 -169 -29 -203 -13 -39 -20 -102 -25 -220 -8 -196 -19 -351
-35 -515 -26 -254 -13 -1234 19 -1520 5 -44 12 -163 16 -265 5 -138 11 -199
25 -240 10 -31 23 -115 29 -188 6 -73 16 -143 23 -155 7 -12 18 -83 24 -157 7
-74 20 -162 29 -195 8 -33 19 -97 24 -142 5 -46 16 -94 24 -107 9 -13 19 -55
23 -93 4 -37 15 -93 25 -123 9 -30 23 -95 29 -144 6 -48 17 -98 25 -110 7 -11
18 -47 24 -78 6 -32 17 -70 24 -85 8 -16 18 -53 22 -83 3 -30 17 -92 31 -136
13 -45 24 -90 24 -100 0 -11 12 -41 25 -69 14 -27 25 -61 25 -75 0 -14 9 -41
19 -61 11 -20 22 -58 26 -85 4 -27 18 -75 31 -106 13 -32 24 -64 24 -73 0 -9
11 -37 25 -63 14 -26 25 -58 25 -72 0 -14 8 -41 19 -60 10 -19 23 -58 29 -87
7 -28 21 -67 32 -85 11 -18 20 -40 20 -49 0 -9 11 -36 23 -60 13 -24 27 -62
31 -84 4 -22 16 -53 26 -70 9 -16 21 -43 24 -60 4 -16 15 -38 24 -48 9 -10 22
-37 28 -60 20 -73 56 -161 75 -186 11 -13 19 -29 19 -35 0 -6 11 -33 24 -61
14 -27 39 -84 57 -125 17 -41 40 -86 50 -99 11 -13 19 -30 19 -38 0 -8 12 -38
26 -67 15 -28 32 -62 39 -76 14 -30 26 -55 48 -95 8 -16 34 -68 58 -115 23
-47 49 -94 59 -105 9 -11 32 -54 50 -95 19 -41 42 -84 51 -95 10 -11 34 -54
55 -95 21 -41 52 -95 69 -120 17 -25 50 -79 74 -120 40 -71 78 -130 101 -157
5 -7 18 -29 27 -50 9 -21 24 -46 32 -56 8 -9 19 -25 25 -36 19 -32 69 -106 75
-111 12 -10 49 -67 69 -107 12 -23 25 -43 30 -45 5 -1 30 -34 55 -73 96 -141
117 -171 165 -230 27 -33 64 -84 82 -112 18 -29 37 -53 40 -53 4 0 26 -28 49
-62 40 -59 69 -95 186 -228 28 -32 77 -92 110 -135 33 -43 77 -97 98 -119 21
-23 84 -90 140 -151 230 -248 288 -309 485 -509 114 -115 223 -220 242 -235
19 -14 37 -28 40 -31 39 -40 300 -272 341 -302 13 -10 69 -55 124 -101 131
-108 186 -152 249 -198 51 -38 89 -69 125 -101 11 -9 29 -21 40 -28 25 -13
150 -104 171 -124 8 -8 29 -20 45 -27 17 -7 50 -29 74 -49 24 -19 59 -44 77
-55 43 -27 143 -93 174 -116 14 -10 39 -26 55 -35 17 -9 32 -20 35 -24 3 -3
41 -26 85 -50 44 -24 89 -52 99 -62 11 -10 24 -18 30 -18 5 0 17 -6 25 -14 9
-7 52 -32 96 -56 44 -23 82 -46 85 -50 3 -5 26 -18 50 -29 58 -27 107 -55 129
-75 10 -9 21 -16 25 -16 13 0 156 -72 162 -82 7 -11 113 -60 169 -78 22 -7 52
-21 67 -31 14 -11 30 -19 36 -19 5 0 15 -7 22 -14 6 -8 28 -20 48 -27 20 -6
48 -20 62 -29 14 -10 45 -23 70 -30 25 -7 56 -20 70 -30 14 -9 38 -20 53 -24
16 -4 38 -16 50 -26 11 -11 28 -20 37 -20 8 0 24 -6 35 -13 11 -7 47 -21 80
-31 33 -10 76 -27 96 -37 20 -11 45 -19 56 -19 10 0 34 -11 53 -25 19 -14 40
-25 47 -25 8 0 31 -9 53 -20 22 -11 63 -25 92 -31 29 -6 70 -20 90 -30 21 -11
45 -19 55 -19 11 0 36 -9 57 -19 21 -11 52 -23 69 -27 17 -3 47 -15 67 -24 19
-10 62 -24 95 -30 33 -7 81 -21 107 -31 26 -10 57 -19 70 -19 13 0 44 -11 70
-25 26 -14 57 -25 70 -25 13 0 42 -9 66 -20 23 -10 87 -26 142 -34 54 -8 109
-20 121 -26 11 -7 49 -16 84 -21 35 -5 78 -17 97 -28 18 -10 60 -21 94 -24 33
-3 75 -12 92 -21 17 -9 80 -21 139 -27 60 -6 137 -19 173 -29 36 -10 107 -21
159 -25 56 -3 113 -14 140 -25 29 -11 83 -20 146 -24 55 -3 132 -14 170 -25
46 -12 122 -21 220 -26 83 -3 209 -11 280 -16 530 -37 921 -37 1465 0 74 5
207 14 295 20 88 5 182 17 209 26 27 8 95 18 150 21 56 4 121 15 146 24 25 10
88 20 140 24 52 4 113 11 135 17 77 20 131 29 215 39 47 5 111 19 142 30 32
11 72 20 91 20 18 0 50 9 70 19 21 11 61 22 90 26 28 4 70 14 92 22 21 7 82
21 135 29 52 8 104 21 116 29 11 7 46 18 76 24 31 5 71 19 89 30 19 12 47 21
62 21 16 0 49 9 75 19 26 11 81 27 122 37 41 10 84 24 95 31 11 7 26 13 34 13
8 0 33 8 55 19 48 22 146 56 231 80 33 9 71 24 85 33 14 9 39 19 57 23 17 3
37 13 43 20 7 8 28 17 49 21 20 3 46 13 59 21 13 8 57 25 98 38 40 14 82 29
91 34 10 5 29 14 43 20 14 6 32 15 40 20 35 21 144 71 154 71 6 0 38 14 71 30
33 16 65 30 71 30 6 0 19 9 29 20 10 11 22 20 27 20 8 0 124 55 163 78 11 7
40 21 65 32 25 11 63 31 85 45 22 14 47 28 55 32 8 3 33 14 55 24 40 18 49 24
116 66 19 13 42 23 50 23 9 0 26 11 38 24 13 13 34 27 47 30 13 4 40 17 60 31
20 14 42 25 49 25 7 0 22 9 35 20 13 11 26 20 30 20 3 0 16 9 28 20 12 12 41
30 64 40 44 21 66 34 210 131 45 31 94 62 107 69 14 7 36 23 50 36 13 12 40
31 60 41 20 10 50 29 67 43 17 14 46 34 65 45 18 11 42 25 53 32 12 7 25 18
31 26 5 8 21 19 34 26 13 7 62 44 108 82 46 38 88 69 92 69 8 0 62 40 112 83
14 12 41 33 59 47 50 38 100 79 156 130 28 25 63 54 78 65 15 11 51 41 79 67
71 64 187 148 204 148 24 0 102 -57 223 -165 71 -62 154 -130 360 -294 74 -59
88 -69 118 -86 17 -11 32 -23 32 -27 0 -4 26 -25 58 -47 31 -22 75 -54 97 -70
22 -17 56 -40 75 -51 38 -23 67 -43 147 -105 28 -22 74 -53 103 -70 29 -16 64
-39 78 -51 15 -11 34 -23 43 -27 9 -3 43 -25 75 -49 66 -48 98 -68 164 -99 24
-12 50 -28 57 -35 7 -7 39 -27 70 -45 32 -18 71 -43 86 -56 16 -13 37 -23 46
-23 10 0 27 -8 39 -18 18 -15 33 -25 92 -61 8 -4 31 -16 50 -25 19 -9 76 -39
125 -66 50 -27 110 -60 135 -73 25 -13 59 -32 75 -41 17 -9 37 -16 46 -16 9 0
27 -9 41 -19 13 -11 38 -23 54 -27 16 -4 42 -18 57 -31 16 -12 34 -23 40 -23
7 0 28 -8 47 -19 19 -10 53 -24 75 -31 22 -7 47 -18 55 -25 8 -7 26 -16 40
-20 14 -4 41 -15 60 -25 82 -42 155 -73 198 -85 61 -17 150 -55 182 -78 13 -9
33 -17 43 -17 10 0 35 -9 56 -19 21 -11 65 -26 97 -34 63 -16 145 -47 206 -78
20 -10 47 -19 60 -19 13 0 37 -8 53 -18 17 -10 59 -24 95 -32 36 -7 89 -22
119 -32 30 -10 64 -18 75 -18 12 0 44 -12 71 -25 28 -14 59 -25 69 -25 11 0
38 -9 60 -19 23 -11 84 -27 136 -36 52 -9 109 -22 126 -30 17 -8 57 -17 90
-21 32 -4 75 -15 94 -24 19 -9 63 -20 97 -23 35 -4 79 -14 99 -22 20 -8 91
-22 158 -29 66 -8 137 -21 156 -29 19 -8 80 -18 135 -22 62 -4 109 -13 124
-22 16 -11 68 -19 154 -25 79 -5 143 -15 166 -25 25 -11 88 -19 201 -25 91 -5
233 -13 315 -18 384 -25 467 -28 720 -28 264 0 488 8 750 28 72 5 204 13 295
19 108 6 181 14 210 25 25 10 92 19 155 23 71 4 124 12 150 23 22 10 82 21
134 25 52 4 106 11 120 17 14 5 53 14 86 18 168 23 219 32 258 47 23 8 75 19
116 24 40 4 81 15 90 23 9 9 44 18 76 22 33 4 72 13 86 20 14 7 68 20 120 29
52 8 115 25 141 35 26 11 58 20 73 20 14 0 47 11 73 25 26 14 60 25 76 25 16
0 47 9 70 19 23 11 77 28 121 39 94 23 156 45 206 72 20 11 47 20 60 20 13 0
38 9 55 19 17 10 51 22 75 26 24 4 67 17 94 30 28 12 64 26 81 29 18 4 40 16
50 27 9 10 29 19 44 19 15 0 39 9 53 20 14 11 30 20 36 20 22 0 195 72 219 91
14 10 34 19 46 19 11 0 39 11 61 25 22 13 47 25 55 25 9 0 49 18 90 39 70 38
204 104 260 130 14 6 66 33 115 61 50 27 106 57 125 65 58 26 73 34 120 65 25
16 55 34 67 39 47 21 210 116 236 138 16 13 35 23 42 23 7 0 20 6 27 13 7 7
44 30 83 52 38 21 94 57 125 79 30 23 71 49 90 59 19 10 69 42 110 72 41 30
89 62 105 71 17 9 34 23 38 30 4 8 13 14 19 14 11 0 72 42 131 91 18 14 48 37
69 50 20 13 64 45 97 72 34 26 64 47 67 47 5 0 103 78 177 143 27 23 56 46 65
51 19 11 195 154 227 184 11 11 45 39 75 63 29 23 98 83 151 133 53 50 131
123 174 161 96 88 173 164 350 351 77 81 179 188 227 238 47 50 99 105 115
122 15 17 46 51 69 76 48 52 294 347 309 370 39 60 69 100 109 143 69 77 74
82 87 107 6 13 30 46 53 73 23 28 55 70 71 95 17 25 53 75 80 112 28 37 61 85
74 107 13 22 37 54 52 73 16 18 29 36 29 39 0 4 42 70 93 148 139 212 183 283
201 321 14 31 49 85 74 115 5 6 28 48 51 93 24 45 47 82 51 82 4 0 13 15 21
33 18 44 120 229 136 245 7 7 13 18 13 24 0 15 118 249 135 268 7 8 18 34 24
58 7 23 16 42 21 42 5 0 15 18 21 40 7 22 20 47 31 56 10 10 18 24 18 33 0 9
14 45 30 79 17 35 30 72 30 81 0 9 11 32 25 51 14 19 25 41 25 49 0 9 8 30 19
46 10 17 24 48 31 70 7 22 19 49 25 60 7 11 18 38 25 60 7 22 18 47 25 55 12
15 68 172 80 224 3 17 13 35 21 41 8 6 20 31 25 55 6 25 16 52 24 60 7 8 18
40 24 72 5 31 19 73 30 94 12 21 21 48 21 59 0 12 9 38 19 59 11 21 23 52 27
69 3 18 17 64 29 102 13 39 26 87 30 108 3 21 15 53 26 70 10 18 19 43 19 57
0 14 9 43 21 64 11 21 26 76 34 121 7 45 20 95 28 111 8 16 17 50 20 76 4 26
16 64 27 85 11 21 20 49 20 63 0 14 11 68 24 120 13 52 27 127 31 165 4 39 14
80 22 92 8 12 19 55 24 95 4 40 17 102 28 138 11 36 25 114 32 175 6 60 17
125 24 145 7 19 16 85 20 145 5 73 13 124 26 152 12 26 19 66 20 105 0 35 4
86 9 113 31 170 39 266 46 504 5 215 10 273 23 301 14 31 16 101 16 630 0 461
-3 600 -13 617 -8 15 -16 111 -23 295 -7 198 -16 300 -30 373 -11 55 -24 151
-29 215 -4 66 -14 128 -23 145 -9 17 -19 83 -25 158 -5 70 -14 133 -20 140 -5
6 -12 39 -15 72 -16 162 -27 233 -41 266 -8 20 -19 71 -25 113 -5 42 -14 83
-21 91 -7 8 -18 60 -26 117 -8 56 -23 131 -34 166 -11 35 -20 76 -20 91 0 15
-9 44 -20 66 -11 21 -23 62 -26 89 -4 28 -15 70 -25 94 -10 23 -23 76 -28 117
-6 40 -20 89 -31 107 -11 18 -20 44 -20 57 0 13 -9 40 -19 60 -11 20 -25 65
-31 101 -7 36 -18 76 -25 90 -7 14 -18 51 -24 82 -7 31 -18 61 -26 68 -7 6
-16 26 -19 45 -4 19 -18 59 -31 87 -14 29 -25 64 -25 78 0 14 -11 46 -25 72
-14 26 -25 58 -25 71 0 13 -9 36 -20 50 -11 14 -20 31 -20 39 0 7 -11 37 -25
66 -13 28 -27 69 -31 90 -6 33 -31 91 -85 194 -10 20 -19 48 -19 61 0 31 -19
87 -30 87 -5 0 -14 17 -20 38 -7 20 -18 44 -25 52 -19 24 -75 147 -81 179 -4
17 -15 38 -25 47 -11 9 -19 22 -19 27 0 10 -20 53 -86 191 -13 28 -24 55 -24
61 0 7 -9 20 -19 29 -11 10 -23 30 -26 45 -3 15 -26 57 -50 95 -25 37 -45 70
-45 73 0 22 -98 202 -130 241 -6 7 -18 29 -27 50 -8 20 -19 39 -23 42 -4 3
-15 21 -25 40 -9 19 -23 42 -30 50 -6 8 -18 31 -25 50 -8 19 -31 56 -51 82
-21 26 -43 64 -49 83 -6 19 -16 35 -21 35 -5 0 -14 11 -19 24 -10 28 -108 177
-146 224 -14 18 -35 49 -45 69 -10 20 -27 46 -37 57 -10 12 -31 43 -46 70 -16
26 -36 56 -47 67 -10 10 -31 37 -46 60 -45 68 -57 85 -78 113 -11 15 -32 43
-48 64 -15 20 -35 47 -45 60 -9 13 -29 37 -44 54 -16 17 -28 34 -28 38 0 9
-52 77 -80 105 -11 12 -20 24 -20 29 0 4 -20 26 -45 49 -24 23 -49 57 -56 74
-6 18 -32 55 -57 82 -83 86 -136 145 -199 221 -35 41 -69 82 -76 90 -8 8 -39
45 -70 82 -31 37 -99 110 -149 161 -51 52 -112 114 -134 138 -23 24 -86 85
-140 134 -54 50 -158 150 -232 223 -74 72 -138 132 -143 132 -5 0 -53 41 -106
91 -53 50 -108 98 -122 107 -15 9 -44 35 -66 57 -22 23 -57 52 -78 64 -21 13
-70 50 -110 82 -39 33 -77 63 -82 67 -6 4 -30 23 -55 42 -25 20 -56 43 -70 52
-14 8 -42 32 -63 52 -21 20 -42 36 -47 36 -4 0 -26 15 -48 33 -22 17 -50 39
-62 47 -13 8 -35 24 -49 35 -14 11 -53 38 -86 60 -33 22 -64 46 -70 52 -12 15
-116 83 -127 83 -7 0 -68 38 -103 65 -38 28 -188 125 -194 125 -4 0 -36 19
-71 43 -64 43 -123 78 -195 116 -22 12 -58 33 -80 46 -22 14 -53 31 -70 38
-51 24 -59 27 -110 58 -27 16 -66 36 -85 44 -40 18 -38 17 -112 67 -30 21 -70
41 -89 44 -19 4 -47 18 -62 31 -16 12 -39 23 -51 23 -13 0 -31 9 -41 20 -10
11 -23 20 -29 20 -6 0 -24 7 -41 16 -16 9 -76 35 -132 59 -56 23 -109 47 -117
54 -15 12 -75 37 -181 73 -33 12 -65 25 -71 29 -6 5 -30 16 -54 24 -24 8 -50
21 -58 28 -15 12 -99 43 -207 77 -33 10 -73 25 -90 34 -16 9 -38 16 -49 16
-10 0 -33 9 -50 19 -17 11 -51 25 -76 31 -25 7 -52 18 -60 25 -8 7 -47 18 -87
24 -39 6 -87 19 -105 30 -18 10 -55 21 -81 25 -27 3 -60 15 -74 26 -14 11 -40
20 -57 20 -17 0 -51 9 -75 21 -25 11 -79 25 -120 31 -42 6 -96 19 -121 28 -25
10 -70 21 -100 25 -30 4 -63 14 -72 22 -9 8 -51 19 -94 24 -42 6 -89 16 -105
24 -15 8 -71 20 -123 25 -53 6 -119 18 -148 26 -29 8 -100 20 -158 25 -61 6
-115 17 -129 26 -15 10 -64 18 -132 23 -59 5 -140 17 -181 28 -47 13 -123 22
-213 27 -175 8 -321 20 -450 36 -136 18 -1251 18 -1375 0 -47 -7 -141 -16
-210 -21 -69 -5 -186 -13 -262 -18 -75 -5 -142 -13 -149 -17 -22 -14 -91 -25
-210 -34 -81 -6 -124 -13 -140 -25 -13 -9 -43 -16 -68 -16 -59 0 -167 -18
-213 -35 -20 -8 -74 -17 -120 -21 -46 -4 -102 -15 -125 -25 -22 -10 -67 -22
-100 -25 -32 -4 -77 -15 -100 -25 -22 -10 -67 -22 -100 -25 -32 -4 -76 -15
-98 -24 -22 -10 -73 -23 -113 -28 -40 -6 -84 -18 -97 -26 -13 -9 -53 -20 -87
-25 -35 -5 -81 -19 -103 -30 -21 -12 -53 -21 -70 -21 -16 0 -44 -8 -60 -19
-17 -10 -52 -21 -79 -25 -26 -4 -76 -18 -112 -32 -35 -13 -73 -24 -83 -24 -10
0 -29 -9 -43 -19 -13 -11 -44 -24 -68 -31 -25 -6 -54 -17 -65 -24 -11 -7 -45
-19 -75 -26 -30 -7 -71 -20 -90 -30 -19 -9 -48 -20 -65 -24 -16 -4 -37 -13
-45 -20 -8 -7 -60 -29 -115 -50 -118 -45 -213 -83 -237 -97 -21 -11 -27 -13
-148 -72 -52 -25 -115 -55 -140 -67 -25 -11 -64 -31 -88 -45 -24 -13 -53 -27
-65 -31 -38 -11 -190 -86 -204 -99 -7 -8 -29 -19 -48 -25 -19 -6 -35 -15 -35
-19 0 -5 -21 -18 -47 -30 -27 -11 -66 -32 -88 -46 -22 -13 -56 -32 -75 -41
-19 -9 -42 -22 -50 -29 -17 -14 -122 -70 -160 -85 -14 -6 -45 -26 -70 -45 -25
-19 -61 -44 -80 -55 -88 -51 -106 -63 -125 -79 -11 -9 -39 -29 -62 -44 -24
-15 -60 -38 -81 -52 -21 -14 -41 -25 -45 -25 -4 0 -36 -22 -70 -48 -34 -26
-87 -65 -117 -85 -30 -21 -73 -51 -95 -68 -22 -16 -65 -46 -95 -66 -30 -19
-71 -49 -90 -65 -37 -31 -53 -43 -126 -98 -64 -48 -262 -207 -304 -244 -20
-17 -49 -40 -65 -51 -25 -18 -70 -57 -168 -148 -61 -55 -115 -49 -201 25 -34
28 -65 57 -71 63 -5 6 -35 31 -65 54 -30 24 -64 52 -75 63 -11 11 -49 41 -85
68 -36 27 -83 63 -105 80 -57 45 -122 92 -159 115 -17 11 -47 35 -66 53 -19
18 -53 46 -75 61 -22 15 -68 46 -102 70 -35 24 -63 47 -63 51 0 5 -10 12 -22
16 -21 6 -95 54 -129 82 -47 39 -82 63 -141 95 -37 21 -70 42 -73 47 -4 6 -25
20 -47 31 -45 23 -59 33 -93 67 -12 12 -37 27 -56 34 -34 12 -84 41 -132 78
-15 12 -49 33 -75 47 -26 14 -76 41 -112 60 -36 19 -72 40 -80 47 -8 7 -35 21
-60 30 -25 10 -63 31 -84 48 -21 17 -57 38 -79 45 -22 8 -53 23 -68 34 -15 10
-32 19 -39 19 -6 0 -28 11 -48 25 -20 14 -44 25 -52 25 -9 0 -24 6 -35 14 -34
23 -154 86 -165 86 -6 0 -23 9 -38 20 -15 11 -46 23 -67 27 -22 3 -53 17 -68
30 -16 12 -36 23 -46 23 -9 0 -28 8 -41 18 -23 16 -91 44 -185 78 -22 8 -59
23 -82 34 -24 11 -62 29 -85 40 -41 19 -91 37 -220 80 -32 11 -68 26 -80 34
-13 7 -40 17 -61 20 -21 4 -53 16 -70 27 -18 10 -41 19 -52 19 -11 0 -38 9
-59 21 -21 11 -66 25 -99 30 -33 5 -77 19 -98 29 -21 11 -49 20 -61 20 -13 0
-47 11 -76 25 -30 14 -68 25 -86 25 -17 0 -47 8 -66 19 -19 10 -69 24 -110 31
-41 7 -93 20 -115 30 -22 10 -70 21 -106 24 -38 4 -78 15 -95 27 -16 10 -45
19 -64 19 -19 0 -51 5 -70 10 -112 30 -154 39 -239 50 -52 7 -111 18 -131 25
-20 7 -77 16 -126 20 -49 4 -102 14 -119 22 -17 8 -83 19 -149 25 -72 5 -132
16 -150 25 -22 12 -77 19 -191 25 -162 8 -308 21 -445 38 -104 13 -1110 20
-1305 9z m15332 -2548 c107 -6 137 -11 153 -26 11 -10 45 -22 76 -26 31 -4 64
-15 73 -23 10 -9 37 -26 62 -39 24 -13 64 -34 89 -48 55 -30 305 -275 315
-309 4 -14 18 -36 30 -50 21 -23 62 -99 195 -359 25 -48 50 -94 56 -102 6 -8
17 -31 23 -51 7 -20 18 -42 26 -48 7 -6 17 -24 20 -40 3 -16 15 -39 26 -51 11
-12 22 -34 26 -48 3 -14 14 -35 24 -46 9 -11 21 -33 25 -50 4 -16 18 -43 31
-58 12 -16 23 -37 23 -48 0 -10 9 -28 20 -39 12 -12 39 -55 61 -98 22 -42 44
-84 49 -92 5 -8 17 -32 27 -52 61 -126 109 -216 125 -237 10 -13 18 -30 18
-38 0 -8 11 -31 25 -51 14 -20 25 -44 25 -52 0 -9 11 -31 25 -50 14 -19 25
-40 25 -48 0 -8 11 -27 25 -44 14 -16 25 -38 25 -48 0 -10 11 -32 25 -48 23
-27 48 -74 220 -411 39 -75 78 -147 88 -161 9 -13 17 -32 17 -40 0 -9 11 -31
25 -50 14 -19 25 -42 25 -52 0 -10 10 -28 21 -39 12 -12 25 -36 30 -55 6 -18
17 -40 25 -48 8 -9 20 -30 26 -48 6 -18 19 -42 28 -53 17 -19 115 -199 168
-310 14 -27 30 -57 37 -65 7 -8 15 -27 18 -41 4 -14 15 -36 26 -48 11 -12 23
-35 26 -51 3 -16 13 -34 20 -40 8 -6 19 -28 26 -47 6 -20 22 -51 35 -71 13
-19 24 -42 24 -52 0 -9 9 -25 19 -34 11 -10 23 -31 26 -47 4 -16 17 -42 29
-57 12 -15 32 -45 43 -67 11 -22 46 -89 78 -150 32 -60 83 -159 114 -220 31
-60 64 -121 74 -135 9 -13 17 -32 17 -40 0 -9 11 -31 25 -50 14 -19 25 -41 25
-50 0 -9 9 -25 19 -34 11 -10 23 -32 27 -50 3 -17 14 -40 24 -51 10 -11 23
-37 29 -57 7 -20 19 -42 28 -50 9 -7 22 -26 30 -43 8 -16 38 -75 68 -130 29
-55 85 -163 125 -240 98 -192 98 -191 115 -222 8 -16 22 -44 31 -63 9 -19 25
-45 35 -59 10 -13 19 -32 19 -42 0 -9 11 -31 25 -47 14 -17 25 -39 25 -50 0
-10 14 -36 30 -57 17 -21 56 -89 88 -152 31 -62 71 -139 89 -171 17 -31 34
-64 38 -72 24 -56 72 -149 87 -169 10 -13 18 -32 18 -42 0 -9 11 -30 23 -46
13 -15 27 -40 30 -55 4 -15 14 -34 22 -42 9 -8 21 -30 27 -48 6 -18 19 -42 28
-53 16 -18 72 -119 107 -190 8 -16 21 -41 29 -55 7 -14 46 -90 85 -170 40 -80
77 -152 84 -160 7 -8 16 -26 20 -40 4 -14 16 -35 26 -48 10 -13 20 -36 24 -51
3 -16 15 -37 26 -47 10 -9 19 -25 19 -34 0 -10 11 -33 24 -52 13 -20 29 -52
36 -72 6 -20 16 -36 21 -36 6 0 19 -19 30 -42 11 -24 44 -88 74 -143 29 -55
74 -141 99 -192 25 -50 50 -94 55 -97 5 -4 12 -19 16 -35 3 -16 17 -43 31 -62
13 -18 24 -40 24 -49 0 -9 9 -25 19 -34 11 -10 23 -31 26 -47 4 -15 14 -38 24
-51 10 -13 23 -38 29 -56 6 -18 20 -45 32 -59 11 -14 20 -34 20 -44 0 -10 9
-26 19 -36 11 -10 38 -54 61 -98 23 -44 63 -121 89 -172 27 -51 53 -98 58
-105 6 -7 15 -28 21 -46 6 -18 20 -45 32 -59 11 -14 20 -32 20 -39 0 -7 11
-30 25 -50 14 -20 25 -43 25 -51 0 -9 11 -28 25 -45 14 -16 25 -37 25 -47 0
-9 11 -32 25 -51 14 -19 25 -41 25 -50 0 -9 11 -31 25 -50 14 -19 25 -42 25
-52 0 -10 9 -27 20 -38 12 -12 40 -57 63 -101 60 -115 141 -271 153 -294 6
-11 18 -33 27 -50 9 -16 21 -41 28 -55 6 -14 21 -47 34 -75 13 -27 27 -77 31
-110 4 -33 15 -71 26 -86 18 -24 19 -42 16 -248 -2 -170 -6 -224 -16 -230 -15
-9 -31 -70 -32 -115 0 -16 -11 -52 -24 -80 -13 -28 -29 -62 -36 -76 -60 -130
-168 -260 -328 -396 -34 -30 -69 -54 -77 -54 -8 0 -41 -20 -74 -45 -32 -25
-63 -45 -69 -45 -5 0 -25 -11 -44 -24 -20 -13 -51 -29 -70 -35 -20 -7 -44 -21
-53 -31 -10 -11 -26 -20 -36 -20 -10 0 -30 -10 -46 -23 -60 -47 -155 -100
-253 -141 -8 -3 -22 -10 -30 -15 -8 -5 -31 -16 -50 -25 -19 -10 -57 -30 -85
-46 -27 -16 -61 -34 -75 -40 -14 -7 -32 -16 -40 -21 -29 -18 -132 -84 -173
-111 -23 -15 -50 -28 -59 -28 -9 0 -30 -11 -46 -25 -17 -14 -37 -25 -45 -25
-9 0 -28 -10 -44 -23 -44 -36 -108 -77 -119 -77 -6 0 -25 -11 -44 -25 -19 -14
-41 -25 -49 -25 -9 0 -29 -12 -46 -26 -16 -14 -63 -44 -102 -66 -40 -22 -75
-44 -79 -49 -3 -5 -14 -9 -24 -9 -10 0 -31 -11 -47 -24 -15 -13 -39 -27 -53
-31 -14 -4 -34 -15 -45 -25 -11 -10 -55 -37 -98 -61 -116 -65 -161 -91 -204
-120 -21 -14 -74 -45 -118 -68 -44 -24 -87 -48 -95 -56 -8 -7 -32 -18 -52 -25
-21 -6 -38 -16 -38 -21 0 -5 -19 -19 -42 -31 -23 -13 -62 -35 -87 -50 -25 -14
-62 -34 -81 -43 -19 -9 -44 -24 -55 -35 -11 -10 -47 -32 -80 -50 -33 -18 -67
-38 -75 -45 -8 -7 -30 -17 -48 -23 -18 -6 -45 -20 -59 -32 -14 -11 -32 -20
-39 -20 -7 0 -20 -8 -30 -17 -21 -22 -76 -57 -124 -79 -19 -9 -45 -25 -59 -35
-13 -10 -31 -19 -41 -19 -9 0 -25 -9 -35 -20 -17 -18 -205 -130 -220 -130 -4
0 -20 -11 -37 -25 -16 -14 -38 -25 -49 -25 -10 0 -27 -8 -37 -18 -23 -22 -90
-66 -133 -87 -38 -18 -77 -40 -254 -145 -27 -16 -69 -39 -92 -51 -23 -11 -47
-27 -54 -35 -6 -8 -20 -14 -29 -14 -10 0 -31 -11 -47 -24 -15 -13 -63 -43
-106 -67 -44 -24 -95 -54 -115 -66 -21 -12 -57 -33 -82 -48 -25 -14 -63 -37
-85 -50 -22 -14 -58 -34 -80 -44 -22 -10 -46 -26 -54 -35 -7 -9 -22 -16 -31
-16 -10 0 -31 -11 -47 -24 -27 -22 -143 -90 -221 -130 -20 -10 -44 -24 -52
-31 -8 -7 -26 -16 -40 -20 -14 -4 -41 -21 -60 -36 -36 -29 -109 -71 -190 -109
-24 -12 -47 -25 -50 -29 -8 -11 -100 -71 -109 -71 -5 0 -24 -11 -44 -24 -19
-13 -46 -27 -58 -31 -13 -4 -33 -15 -44 -25 -11 -10 -31 -21 -45 -25 -14 -4
-36 -17 -50 -29 -44 -38 -84 -63 -122 -75 -21 -7 -38 -16 -38 -21 0 -5 -20
-16 -45 -26 -25 -9 -45 -20 -45 -24 0 -3 -35 -26 -77 -50 -43 -24 -85 -49 -93
-56 -8 -6 -26 -15 -40 -19 -14 -4 -34 -15 -45 -25 -11 -10 -31 -21 -44 -25
-13 -4 -44 -23 -70 -43 -25 -19 -68 -46 -96 -59 -85 -42 -128 -67 -175 -101
-25 -19 -61 -40 -80 -48 -19 -8 -41 -21 -50 -28 -8 -8 -26 -17 -40 -21 -14 -4
-38 -18 -53 -31 -16 -13 -36 -24 -46 -24 -10 0 -32 -13 -50 -29 -18 -16 -61
-44 -97 -62 -35 -19 -82 -43 -103 -54 -22 -11 -47 -27 -57 -36 -19 -16 -116
-74 -192 -114 -21 -11 -49 -28 -62 -38 -14 -9 -32 -17 -42 -17 -9 0 -31 -13
-49 -29 -18 -17 -60 -44 -93 -61 -34 -18 -83 -45 -111 -61 -27 -15 -66 -36
-85 -45 -19 -9 -43 -23 -53 -32 -23 -21 -80 -55 -133 -80 -23 -11 -45 -25 -48
-31 -4 -6 -15 -11 -26 -11 -10 0 -32 -12 -49 -27 -30 -27 -128 -85 -201 -119
-19 -9 -60 -37 -90 -63 -70 -60 -131 -99 -210 -136 -19 -9 -44 -25 -55 -35
-11 -10 -35 -21 -53 -25 -18 -4 -36 -13 -39 -21 -5 -14 -37 -34 -122 -78 -20
-10 -43 -24 -51 -31 -8 -7 -26 -16 -40 -20 -14 -4 -34 -15 -45 -25 -11 -10
-33 -22 -50 -26 -16 -3 -39 -15 -51 -26 -13 -11 -43 -21 -75 -24 -32 -4 -66
-15 -84 -28 -28 -20 -41 -21 -241 -21 -195 0 -214 2 -233 19 -14 12 -45 22
-84 27 -63 8 -154 46 -237 100 -25 16 -58 37 -74 47 -15 9 -48 35 -73 57 -25
22 -54 46 -64 52 -24 18 -139 162 -139 175 0 6 -11 26 -25 44 -14 18 -25 39
-25 48 0 8 -11 28 -25 44 -14 17 -25 39 -25 50 0 11 -11 34 -25 50 -14 17 -25
37 -25 47 0 9 -13 33 -29 53 -40 50 -168 303 -177 347 -3 19 -15 46 -25 59
-11 13 -19 33 -19 44 0 10 -11 36 -25 56 -14 20 -27 47 -31 61 -3 13 -12 29
-19 35 -8 7 -19 28 -26 48 -6 20 -19 46 -29 57 -10 11 -21 34 -24 50 -4 17
-16 39 -26 50 -19 20 -72 118 -155 280 -25 50 -49 97 -54 105 -32 59 -43 80
-61 120 -12 25 -27 52 -34 60 -8 8 -19 32 -25 52 -7 20 -18 42 -26 48 -7 6
-17 24 -20 40 -3 15 -15 36 -25 45 -11 10 -22 33 -26 51 -3 18 -14 40 -24 49
-11 10 -22 31 -25 49 -4 17 -18 42 -30 56 -13 14 -51 79 -85 145 -33 66 -65
127 -70 135 -5 8 -16 31 -25 50 -8 19 -19 42 -24 50 -11 17 -30 54 -65 127
-14 28 -29 54 -35 57 -5 4 -12 19 -16 35 -3 16 -17 43 -31 62 -13 18 -24 39
-24 47 0 8 -11 27 -25 44 -14 16 -25 37 -25 47 0 9 -11 32 -25 51 -14 19 -25
42 -25 51 0 10 -11 31 -25 47 -13 16 -51 80 -83 143 -32 63 -66 128 -75 144
-8 17 -20 41 -26 55 -11 24 -26 52 -58 110 -8 14 -21 41 -30 60 -8 19 -24 45
-34 59 -10 13 -19 31 -19 40 0 10 -11 32 -25 51 -14 19 -25 42 -25 51 0 10
-11 31 -25 47 -14 17 -25 36 -25 44 0 8 -13 32 -30 55 -25 34 -107 188 -220
412 -14 28 -31 56 -37 63 -7 6 -13 19 -13 29 0 9 -11 33 -25 53 -14 20 -25 43
-25 50 0 6 -11 27 -25 46 -14 19 -25 42 -25 51 0 10 -11 31 -25 47 -14 17 -25
36 -25 45 0 8 -10 29 -23 48 -28 41 -109 187 -161 289 -45 89 -61 121 -81 158
-8 15 -24 47 -35 72 -12 25 -27 52 -34 60 -7 8 -16 27 -19 41 -4 14 -15 36
-26 48 -11 12 -23 35 -26 51 -3 16 -13 34 -20 40 -8 6 -19 28 -26 48 -6 20
-20 46 -29 57 -10 11 -22 34 -26 50 -3 17 -15 40 -26 51 -21 23 -47 68 -72
124 -9 19 -20 42 -25 50 -9 14 -90 169 -119 229 -7 14 -19 37 -27 51 -7 14
-34 66 -59 117 -26 51 -50 94 -55 98 -5 3 -12 18 -16 34 -3 16 -15 40 -26 52
-11 12 -22 34 -26 48 -3 14 -17 39 -30 54 -12 16 -23 37 -23 46 0 10 -9 29
-19 42 -26 34 -48 73 -131 234 -39 77 -78 151 -86 165 -16 30 -37 72 -60 120
-9 19 -25 45 -35 59 -10 13 -19 31 -19 40 0 10 -11 32 -25 51 -14 19 -25 42
-25 51 0 10 -11 30 -25 45 -14 15 -25 36 -25 47 0 10 -11 32 -25 49 -14 16
-25 38 -25 48 0 10 -11 32 -25 48 -13 16 -40 60 -60 98 -20 38 -40 76 -45 84
-4 8 -28 55 -52 103 -75 152 -93 186 -105 199 -7 6 -13 19 -13 28 0 9 -11 31
-25 50 -14 19 -25 41 -25 50 0 9 -11 31 -25 50 -14 19 -25 42 -25 51 0 10 -11
30 -23 46 -13 15 -27 40 -31 55 -3 15 -15 35 -25 45 -11 10 -59 97 -107 193
-48 96 -91 177 -94 180 -3 3 -27 49 -53 102 -26 53 -51 99 -56 102 -5 4 -12
19 -16 35 -3 16 -13 35 -20 41 -8 6 -19 28 -26 48 -6 20 -20 46 -29 57 -10 11
-22 34 -26 50 -3 17 -14 39 -24 50 -10 11 -23 37 -30 58 -6 20 -15 37 -20 37
-4 0 -28 39 -52 88 -23 48 -46 89 -49 92 -3 3 -16 25 -27 50 -12 25 -26 52
-31 60 -5 8 -17 31 -27 50 -42 88 -57 116 -69 130 -7 8 -18 32 -24 52 -7 20
-18 42 -26 48 -7 6 -17 24 -20 40 -3 16 -15 39 -26 51 -11 12 -22 34 -26 48
-3 14 -14 35 -24 46 -9 11 -21 34 -25 50 -4 17 -19 44 -33 60 -23 26 -60 95
-165 303 -10 20 -24 44 -31 52 -7 8 -18 32 -24 52 -7 20 -18 42 -26 48 -7 6
-16 24 -20 39 -3 16 -17 43 -31 62 -13 18 -24 40 -24 49 0 9 -9 25 -19 34 -11
10 -23 32 -26 50 -4 17 -17 42 -30 56 -13 14 -62 102 -110 195 -47 94 -90 177
-95 185 -5 8 -17 31 -25 50 -23 50 -57 112 -77 140 -10 14 -18 32 -18 40 0 9
-11 31 -25 50 -14 19 -25 42 -25 52 0 10 -8 26 -19 37 -20 20 -73 114 -158
281 -56 110 -60 116 -87 165 -9 17 -28 53 -41 80 -14 28 -28 57 -33 65 -23 39
-43 79 -62 120 -12 25 -27 52 -34 60 -7 8 -17 29 -20 45 -4 17 -15 39 -25 50
-21 23 -90 148 -181 327 -36 70 -79 153 -97 185 -32 59 -37 70 -54 111 -9 24
-10 24 -37 6 -15 -10 -42 -26 -61 -36 -18 -9 -41 -23 -50 -31 -9 -8 -31 -19
-50 -26 -19 -6 -42 -18 -50 -26 -21 -21 -90 -65 -100 -65 -4 0 -28 -13 -52
-30 -24 -16 -50 -30 -57 -30 -7 0 -30 -13 -50 -29 -36 -28 -107 -69 -203 -117
-25 -13 -52 -30 -59 -39 -7 -8 -21 -15 -30 -15 -10 0 -29 -9 -42 -20 -34 -30
-112 -80 -123 -80 -6 0 -27 -11 -47 -25 -20 -14 -43 -25 -51 -25 -8 0 -20 -7
-27 -15 -10 -12 -108 -73 -135 -84 -5 -2 -23 -15 -38 -27 -16 -13 -37 -24 -47
-24 -10 0 -32 -11 -48 -25 -17 -14 -39 -25 -50 -25 -11 0 -25 -7 -33 -16 -16
-19 -113 -84 -126 -84 -5 0 -24 -11 -43 -25 -19 -14 -40 -25 -48 -25 -7 0 -30
-13 -50 -29 -36 -29 -126 -81 -207 -119 -22 -11 -51 -31 -64 -46 -28 -30 -34
-11 59 -181 27 -49 54 -101 61 -115 44 -97 78 -161 94 -180 7 -8 17 -30 24
-49 6 -19 17 -42 25 -50 7 -9 19 -32 25 -53 7 -20 18 -38 25 -41 7 -3 16 -20
20 -38 3 -18 15 -42 25 -54 10 -11 47 -74 82 -140 34 -66 86 -165 116 -220 29
-55 60 -116 68 -135 9 -19 20 -42 25 -50 6 -8 20 -35 31 -60 12 -25 27 -52 34
-60 7 -8 18 -32 24 -52 7 -20 18 -42 26 -48 7 -6 17 -25 20 -41 4 -16 17 -42
31 -58 22 -27 61 -98 191 -351 30 -58 58 -112 63 -120 5 -8 17 -31 25 -50 23
-50 58 -115 71 -131 6 -8 16 -29 22 -47 6 -18 20 -45 32 -59 11 -14 20 -33 20
-42 0 -10 11 -32 25 -51 14 -19 25 -42 25 -52 0 -10 9 -27 19 -37 21 -21 109
-176 130 -231 8 -19 20 -42 26 -50 7 -8 31 -53 54 -100 43 -85 62 -124 88
-170 8 -14 23 -44 33 -68 11 -24 27 -50 35 -58 8 -9 15 -23 15 -33 0 -9 11
-32 25 -51 14 -19 25 -42 25 -51 0 -10 11 -30 24 -46 13 -15 63 -104 111 -198
49 -93 101 -192 116 -220 15 -27 33 -61 40 -75 31 -67 42 -89 69 -135 31 -53
36 -64 52 -107 6 -16 14 -28 19 -28 4 0 13 -18 19 -40 6 -21 17 -46 26 -54 8
-9 20 -30 26 -48 6 -18 19 -42 28 -53 16 -18 99 -165 117 -205 20 -48 36 -80
62 -125 17 -27 33 -57 36 -65 13 -31 35 -76 44 -90 12 -18 31 -55 65 -127 14
-28 29 -54 35 -57 5 -4 12 -19 16 -36 3 -16 14 -39 24 -52 10 -13 23 -39 30
-60 7 -20 18 -39 26 -41 7 -3 16 -21 20 -39 4 -18 16 -44 27 -58 33 -43 63
-94 78 -130 7 -19 18 -42 25 -50 6 -8 30 -53 54 -100 23 -47 46 -92 51 -100 5
-8 16 -31 25 -50 8 -19 19 -42 25 -50 5 -8 17 -31 25 -50 23 -50 57 -112 78
-140 9 -14 17 -32 17 -40 0 -9 11 -31 25 -50 14 -19 25 -42 25 -51 0 -10 11
-31 25 -47 14 -17 25 -39 25 -51 0 -11 9 -28 20 -39 10 -10 27 -33 35 -52 9
-19 29 -57 45 -85 15 -27 37 -68 49 -90 11 -22 25 -47 31 -55 5 -8 16 -31 25
-50 8 -19 23 -48 32 -65 22 -41 35 -67 84 -165 23 -47 50 -96 61 -109 10 -13
18 -31 18 -40 0 -10 11 -32 25 -51 14 -19 25 -42 25 -51 0 -10 11 -30 24 -44
13 -14 27 -41 30 -60 4 -19 13 -38 19 -42 13 -8 89 -142 161 -283 46 -91 61
-122 81 -157 8 -16 24 -48 35 -73 12 -25 27 -52 34 -60 7 -8 16 -27 19 -41 4
-14 16 -36 27 -49 11 -13 20 -31 20 -41 0 -9 11 -30 24 -46 13 -15 26 -42 30
-59 4 -18 16 -40 26 -49 11 -10 22 -33 26 -51 3 -18 14 -40 24 -49 11 -10 22
-31 26 -49 3 -17 15 -45 25 -62 13 -22 22 -66 29 -149 7 -79 15 -124 25 -135
11 -13 15 -43 15 -124 0 -93 -3 -111 -20 -133 -15 -19 -20 -41 -20 -82 -1 -68
-16 -138 -34 -157 -8 -7 -17 -33 -21 -56 -8 -43 -60 -148 -75 -148 -4 0 -16
-17 -25 -37 -21 -44 -22 -45 -105 -136 -86 -95 -194 -187 -217 -187 -5 0 -24
-11 -43 -25 -19 -14 -41 -25 -50 -25 -9 0 -25 -9 -36 -21 -10 -11 -55 -41
-101 -65 -45 -25 -85 -50 -88 -55 -4 -5 -14 -9 -24 -9 -10 0 -38 -16 -62 -34
-57 -45 -190 -113 -237 -122 -20 -4 -50 -16 -65 -28 -26 -19 -45 -21 -233 -24
-252 -5 -365 3 -394 28 -11 10 -37 21 -58 24 -91 17 -219 101 -367 242 -46 43
-145 162 -156 187 -5 12 -22 45 -38 72 -16 28 -49 91 -75 142 -25 50 -50 94
-55 97 -5 4 -12 19 -16 35 -3 16 -13 35 -20 41 -8 6 -19 28 -26 48 -6 20 -19
46 -29 57 -10 11 -23 37 -29 57 -7 20 -18 42 -26 48 -7 6 -17 24 -20 40 -3 16
-15 39 -26 51 -11 12 -22 34 -26 48 -3 14 -15 38 -27 52 -27 34 -44 65 -128
229 -37 74 -73 142 -78 150 -5 8 -16 31 -25 50 -15 33 -21 45 -58 115 -9 17
-24 46 -33 65 -9 19 -25 45 -35 59 -10 13 -19 31 -19 40 0 10 -11 32 -25 51
-14 19 -25 42 -25 51 0 10 -11 31 -25 47 -13 16 -29 40 -35 53 -5 13 -35 69
-65 124 -30 55 -75 141 -100 190 -26 50 -52 101 -60 115 -19 33 -41 77 -60
120 -8 19 -20 42 -25 50 -6 8 -18 31 -26 50 -9 19 -25 45 -35 59 -10 13 -19
32 -19 42 0 9 -11 31 -25 47 -14 17 -25 39 -25 50 0 11 -11 34 -25 50 -24 28
-69 112 -189 347 -28 55 -59 111 -68 125 -10 13 -18 32 -18 40 0 9 -11 31 -25
50 -14 19 -25 42 -25 51 0 10 -11 30 -23 46 -13 15 -27 40 -30 55 -4 15 -14
34 -22 42 -9 8 -21 30 -27 48 -6 18 -19 42 -28 53 -10 11 -21 33 -24 49 -4 16
-18 43 -31 58 -14 16 -41 61 -60 101 -69 138 -130 254 -141 268 -6 8 -17 31
-23 51 -7 20 -18 42 -26 48 -7 6 -17 24 -20 40 -3 15 -15 36 -25 45 -10 9 -22
30 -25 46 -4 15 -14 38 -24 51 -10 13 -23 39 -30 60 -7 20 -18 39 -26 41 -7 3
-16 21 -20 39 -4 18 -15 41 -24 51 -17 19 -62 102 -180 332 -40 77 -76 147
-81 155 -5 8 -16 31 -25 50 -14 32 -33 68 -57 110 -5 8 -18 35 -30 60 -11 25
-29 56 -39 69 -11 13 -19 32 -19 42 0 9 -11 30 -23 46 -20 24 -109 186 -220
403 -15 30 -32 62 -37 70 -5 8 -16 31 -25 50 -8 19 -23 49 -32 65 -32 59 -44
81 -85 165 -22 47 -49 96 -60 109 -10 13 -18 31 -18 41 0 9 -14 34 -30 55 -17
21 -55 88 -87 149 -99 196 -204 400 -218 426 -17 30 -37 70 -64 128 -12 24
-28 50 -36 58 -8 9 -15 24 -15 34 0 10 -11 31 -23 47 -13 15 -27 42 -31 58 -4
17 -16 39 -26 50 -20 22 -72 118 -175 325 -38 74 -73 142 -80 150 -7 8 -16 26
-20 40 -4 14 -15 34 -25 45 -10 11 -23 37 -29 57 -7 20 -18 42 -26 48 -7 6
-17 24 -20 40 -4 16 -14 39 -24 52 -10 13 -23 39 -30 60 -7 20 -18 39 -26 41
-7 3 -16 21 -20 39 -4 18 -18 45 -31 60 -12 16 -26 37 -29 49 -5 16 -12 19
-30 15 -39 -10 -108 -45 -150 -76 -22 -17 -58 -39 -80 -51 -78 -40 -121 -64
-145 -81 -14 -10 -32 -18 -41 -18 -9 0 -31 -12 -48 -27 -31 -28 -128 -84 -207
-122 -23 -11 -45 -24 -48 -30 -4 -6 -45 -31 -91 -56 -47 -26 -87 -51 -90 -56
-4 -5 -14 -9 -23 -9 -9 0 -34 -15 -54 -33 -38 -34 -46 -38 -128 -77 -78 -36
-116 -58 -129 -74 -8 -9 -22 -16 -31 -16 -10 0 -31 -11 -47 -24 -15 -13 -63
-42 -105 -65 -43 -24 -80 -47 -84 -52 -3 -5 -12 -9 -21 -9 -9 0 -30 -11 -47
-24 -17 -13 -42 -27 -56 -31 -14 -4 -34 -15 -45 -25 -11 -10 -33 -25 -50 -34
-16 -9 -48 -28 -70 -41 -22 -13 -60 -33 -84 -45 -24 -11 -58 -33 -76 -48 -30
-27 -31 -29 -17 -62 7 -19 22 -45 33 -58 10 -14 19 -33 19 -43 0 -9 11 -30 24
-46 13 -15 27 -43 31 -61 4 -18 13 -36 21 -39 8 -3 18 -22 24 -42 5 -21 18
-47 27 -59 25 -29 101 -168 171 -311 7 -14 19 -37 26 -51 8 -14 33 -63 57
-110 23 -47 46 -86 50 -88 4 -2 13 -20 20 -40 6 -20 19 -46 29 -57 10 -11 21
-34 24 -51 4 -18 16 -40 26 -49 10 -9 22 -31 26 -49 4 -17 15 -42 26 -56 33
-43 63 -94 78 -130 7 -19 19 -42 27 -51 7 -8 13 -18 13 -21 0 -9 29 -70 59
-123 16 -27 48 -88 71 -135 23 -47 48 -92 55 -100 7 -8 18 -32 24 -52 7 -20
18 -42 26 -48 7 -6 17 -24 20 -40 3 -16 15 -39 26 -51 11 -12 22 -34 26 -48 3
-14 13 -35 23 -46 9 -11 22 -35 28 -53 6 -18 20 -45 32 -59 11 -14 20 -34 20
-44 0 -10 9 -26 19 -36 10 -10 49 -76 86 -148 36 -71 70 -137 75 -145 5 -8 15
-27 22 -41 86 -174 114 -228 130 -248 10 -13 18 -32 18 -42 0 -10 11 -30 25
-45 14 -15 25 -34 25 -44 0 -9 11 -31 25 -50 14 -19 25 -44 25 -55 0 -12 9
-30 20 -40 11 -10 39 -55 62 -99 23 -45 54 -103 69 -131 15 -27 57 -111 95
-185 37 -74 76 -146 86 -159 10 -13 18 -31 18 -40 0 -10 11 -32 25 -51 14 -19
25 -42 25 -51 0 -10 11 -30 23 -46 13 -15 27 -40 30 -54 4 -14 16 -36 27 -49
11 -13 20 -31 20 -41 0 -9 11 -30 24 -46 21 -25 123 -210 169 -308 10 -22 23
-47 28 -55 5 -8 19 -35 30 -60 11 -25 26 -52 33 -60 7 -8 16 -27 20 -42 3 -15
13 -34 21 -42 9 -8 21 -30 27 -48 6 -18 19 -42 28 -53 10 -11 21 -34 24 -51 4
-18 16 -40 26 -49 10 -9 22 -30 25 -45 3 -16 17 -40 29 -55 13 -15 49 -77 80
-138 32 -62 64 -123 72 -137 7 -14 21 -41 29 -60 8 -19 19 -42 25 -50 5 -8 17
-31 25 -50 25 -57 56 -114 70 -130 7 -8 18 -32 24 -52 7 -20 18 -42 26 -48 7
-6 17 -24 20 -40 3 -15 15 -36 25 -45 10 -9 22 -31 26 -49 4 -17 17 -44 30
-59 13 -16 24 -37 24 -47 0 -10 11 -32 25 -48 13 -16 29 -40 35 -53 5 -13 24
-46 40 -74 16 -27 33 -57 36 -65 24 -54 35 -77 43 -90 6 -8 16 -27 23 -41 86
-174 114 -228 130 -248 10 -13 18 -30 18 -38 0 -8 11 -31 25 -51 14 -20 25
-44 25 -54 0 -9 11 -30 25 -46 14 -17 25 -36 25 -44 0 -8 11 -29 25 -48 14
-19 25 -41 25 -51 0 -9 10 -29 23 -44 22 -28 110 -190 207 -383 29 -56 56
-105 61 -108 5 -3 9 -13 9 -23 0 -9 11 -32 25 -51 14 -19 25 -41 25 -50 0 -9
11 -31 25 -50 14 -19 25 -42 25 -51 0 -10 12 -31 28 -48 15 -17 65 -104 111
-193 46 -90 90 -176 98 -193 97 -188 112 -222 119 -260 4 -22 17 -53 28 -68
20 -28 21 -40 21 -342 0 -311 0 -314 -22 -337 -13 -14 -23 -35 -23 -49 0 -36
-17 -87 -34 -105 -9 -8 -19 -27 -23 -42 -3 -15 -17 -40 -30 -55 -12 -16 -23
-34 -23 -41 0 -40 -252 -295 -318 -322 -18 -7 -40 -20 -48 -29 -9 -9 -48 -34
-88 -56 -39 -22 -78 -44 -86 -49 -8 -5 -28 -16 -45 -24 -85 -43 -104 -54 -145
-85 -25 -18 -67 -44 -95 -57 -27 -13 -57 -28 -65 -33 -54 -34 -135 -63 -198
-70 -40 -5 -80 -15 -89 -23 -12 -9 -54 -13 -157 -13 -116 0 -146 3 -171 17
-16 10 -48 18 -70 18 -55 1 -111 15 -129 33 -8 8 -30 17 -49 21 -19 4 -42 15
-52 26 -10 11 -25 20 -34 20 -14 0 -52 21 -145 82 -46 30 -226 220 -226 239 0
7 -11 26 -24 43 -13 17 -27 42 -31 56 -4 14 -15 34 -25 45 -9 11 -22 36 -29
55 -6 19 -20 43 -30 55 -10 11 -46 74 -80 140 -34 66 -66 127 -71 135 -5 8
-16 31 -26 50 -50 102 -111 218 -126 240 -10 13 -18 32 -18 40 0 9 -11 31 -25
50 -14 19 -25 41 -25 50 0 9 -8 25 -18 36 -10 11 -24 34 -30 52 -6 18 -20 45
-32 59 -11 14 -20 35 -20 46 0 12 -11 32 -24 46 -14 15 -64 104 -113 198 -48
95 -108 212 -133 260 -25 49 -53 99 -62 113 -10 13 -18 32 -18 40 0 9 -11 31
-25 50 -14 19 -25 41 -25 49 0 9 -11 29 -25 45 -14 16 -25 37 -25 46 0 9 -11
31 -25 50 -14 19 -25 41 -25 51 0 9 -10 29 -23 44 -24 30 -111 193 -226 421
-39 78 -78 147 -86 154 -8 7 -15 23 -15 35 0 13 -11 36 -23 52 -13 15 -27 42
-31 58 -4 17 -16 39 -26 50 -9 11 -23 36 -29 57 -7 20 -18 38 -24 41 -7 3 -43
65 -80 138 -37 74 -72 141 -77 149 -5 8 -15 27 -22 42 -75 152 -112 225 -123
238 -7 8 -18 32 -25 53 -6 20 -15 37 -20 37 -5 0 -16 22 -25 50 -9 28 -20 50
-25 50 -4 0 -15 19 -25 42 -9 23 -25 52 -36 66 -10 14 -19 33 -19 43 0 10 -8
26 -19 36 -15 15 -112 191 -168 308 -8 17 -18 37 -23 45 -6 8 -31 58 -57 110
-25 52 -55 106 -65 119 -10 13 -18 31 -18 40 0 10 -11 32 -25 51 -14 19 -25
40 -25 48 0 8 -11 27 -25 44 -14 16 -25 40 -25 52 0 12 -11 33 -25 46 -14 13
-25 33 -25 45 0 12 -10 34 -21 49 -12 15 -40 62 -62 104 -23 42 -53 100 -68
127 -15 28 -46 88 -70 135 -23 47 -50 96 -61 109 -10 13 -18 31 -18 40 0 10
-11 32 -25 51 -14 19 -25 41 -25 50 0 9 -11 31 -25 50 -14 19 -25 42 -25 51 0
10 -11 30 -25 45 -14 15 -25 35 -25 45 0 9 -11 30 -24 46 -13 16 -38 58 -56
93 -17 36 -35 72 -41 80 -5 8 -18 33 -29 55 -11 22 -28 54 -37 70 -33 61 -44
82 -85 165 -22 47 -49 96 -60 109 -10 13 -18 32 -18 42 0 9 -11 31 -25 47 -14
17 -25 39 -25 50 0 11 -11 33 -23 49 -13 15 -27 40 -30 55 -4 15 -14 33 -22
42 -9 8 -22 33 -30 55 -7 22 -22 48 -32 58 -10 10 -46 74 -81 143 -35 69 -67
132 -72 140 -5 8 -17 31 -25 50 -25 57 -56 114 -70 130 -7 8 -18 32 -25 53 -6
20 -15 37 -20 37 -5 0 -14 17 -20 38 -7 20 -20 46 -30 57 -10 11 -21 34 -24
51 -4 18 -16 40 -26 49 -10 9 -22 31 -26 49 -3 17 -15 40 -25 51 -18 21 -77
125 -124 220 -13 28 -29 57 -34 65 -6 8 -16 27 -23 41 -7 14 -37 74 -66 132
-29 59 -57 109 -61 112 -5 2 -12 16 -15 30 -3 13 -17 41 -31 61 -14 20 -25 44
-25 54 0 9 -9 25 -19 34 -11 10 -23 32 -27 50 -4 17 -17 44 -30 59 -13 16 -24
37 -24 46 0 10 -13 35 -29 55 -16 20 -54 87 -85 148 -31 62 -61 120 -66 128
-5 8 -16 31 -26 50 -50 102 -65 130 -73 135 -5 3 -12 18 -16 34 -3 16 -17 43
-31 62 -13 18 -24 40 -24 49 0 9 -11 31 -25 50 -14 19 -25 41 -25 50 0 9 -11
31 -25 50 -14 19 -25 40 -25 48 0 8 -10 27 -22 42 -27 32 -45 63 -105 180 -24
47 -60 114 -79 150 -20 36 -40 85 -45 109 -5 25 -18 54 -28 65 -11 13 -21 44
-25 79 -3 32 -14 70 -24 85 -15 23 -17 54 -17 237 0 181 2 213 17 235 9 14 20
50 24 80 4 30 15 66 25 79 10 12 21 39 25 60 7 39 81 176 123 229 82 102 266
272 296 272 6 0 35 19 65 41 30 23 74 50 98 60 24 10 50 26 58 34 9 8 22 15
31 15 8 0 29 11 45 25 17 14 63 44 102 66 39 22 78 44 86 48 8 5 26 14 40 20
14 6 36 18 50 25 14 8 64 32 112 55 47 22 89 45 93 51 3 5 14 10 23 10 9 0 30
11 46 25 16 14 37 25 47 25 10 0 30 11 46 24 15 13 43 32 62 42 19 10 55 31
80 46 25 14 63 34 83 43 21 10 38 21 38 25 0 4 38 29 85 55 47 26 88 52 91 56
3 5 14 9 24 9 10 0 31 11 47 24 15 13 39 27 53 31 14 4 34 15 45 25 23 19 148
93 217 127 26 13 50 27 53 32 3 5 18 12 34 16 16 3 35 13 42 21 17 21 93 71
121 79 12 4 30 13 38 20 8 7 31 21 51 31 20 11 60 34 89 53 58 38 115 70 170
96 19 10 45 26 59 36 13 10 31 19 41 19 9 0 25 10 36 21 10 12 33 28 49 36 17
8 48 25 70 39 22 13 60 34 85 45 25 12 55 32 67 44 12 12 52 37 88 56 107 55
139 73 165 92 14 9 30 17 37 17 7 0 39 20 70 44 32 24 69 47 83 51 14 4 38 18
53 31 16 13 37 24 47 24 10 0 31 10 47 23 27 22 145 93 208 125 17 8 41 24 54
34 13 10 31 18 39 18 9 0 26 10 39 23 23 21 137 87 211 122 18 8 54 32 80 52
26 19 66 44 90 54 24 10 50 26 58 34 9 8 21 15 28 15 7 0 29 11 49 24 19 13
46 27 58 31 13 4 35 17 49 29 42 36 88 66 103 66 7 0 28 11 47 25 19 14 39 25
46 25 7 0 25 11 41 24 15 13 45 29 66 35 20 7 37 17 37 22 0 8 35 30 119 73
20 10 43 24 51 31 8 7 26 16 40 20 14 4 40 21 58 36 18 16 39 29 47 29 7 0 15
4 17 9 2 4 39 27 83 50 44 24 87 49 96 57 8 7 30 17 48 20 17 4 37 14 44 23
13 18 67 54 127 84 19 9 49 25 65 34 17 9 35 19 41 22 6 3 37 23 69 45 32 21
90 55 129 75 39 20 82 44 96 54 13 9 32 17 42 17 9 0 23 8 30 18 7 10 45 35
83 56 39 22 77 44 85 51 8 7 26 16 40 20 14 4 36 17 50 30 14 12 57 39 95 60
39 20 77 43 86 51 8 8 23 14 32 14 9 0 30 13 47 29 18 16 62 44 98 62 36 19
89 46 118 61 28 15 55 31 59 37 3 6 14 11 25 11 10 0 32 12 49 28 31 27 127
83 206 120 22 11 46 27 54 36 7 9 22 16 31 16 10 0 31 10 47 23 44 36 108 77
119 77 6 0 25 11 44 25 19 14 41 25 49 25 9 0 31 13 50 29 18 16 62 43 98 62
35 18 69 39 75 46 6 7 19 13 28 13 10 0 32 11 48 25 17 14 37 25 45 25 9 0 28
11 44 24 15 13 43 32 62 42 19 10 55 31 80 46 25 14 60 33 77 41 17 8 41 23
53 33 24 21 137 86 191 110 19 9 44 24 55 34 11 10 37 23 58 30 20 6 37 16 37
21 0 5 17 18 38 29 162 88 217 122 278 171 38 31 88 66 111 78 23 11 44 25 47
30 4 5 19 12 35 16 16 3 37 15 46 25 9 10 30 22 45 25 15 3 42 19 59 34 18 16
61 44 97 62 116 61 139 74 164 92 14 9 32 17 40 17 9 0 31 11 50 25 23 17 47
25 76 25 28 0 51 7 70 23 28 21 35 22 259 22 215 0 233 -1 270 -21 22 -12 60
-24 84 -28 24 -4 56 -16 71 -26 16 -11 34 -20 42 -20 7 0 33 -14 57 -30 24
-17 48 -30 53 -30 40 0 318 -277 318 -317 0 -5 9 -19 19 -30 26 -28 120 -201
256 -473 26 -51 54 -100 61 -108 8 -7 14 -20 14 -28 0 -8 11 -37 25 -64 14
-27 25 -58 25 -69 0 -25 20 -71 31 -71 5 0 13 -17 19 -39 5 -21 20 -49 33 -63
12 -13 51 -80 85 -149 34 -68 66 -131 71 -139 4 -8 15 -28 25 -45 9 -16 37
-73 62 -125 26 -52 52 -102 59 -110 7 -8 16 -26 20 -40 4 -14 15 -34 25 -45
10 -11 23 -37 30 -57 6 -21 15 -38 20 -38 4 0 17 -19 29 -42 12 -24 26 -50 31
-58 6 -8 17 -31 26 -50 8 -19 28 -57 44 -85 16 -27 33 -61 39 -75 6 -14 15
-32 21 -40 5 -8 31 -58 56 -110 26 -52 53 -102 59 -110 7 -8 18 -32 24 -52 7
-20 18 -42 26 -48 7 -6 17 -24 20 -40 3 -15 15 -36 25 -45 11 -10 22 -33 26
-52 3 -18 15 -39 25 -47 10 -7 24 -28 30 -47 7 -19 18 -41 25 -49 7 -9 20 -31
29 -50 8 -19 20 -42 25 -50 6 -8 17 -31 25 -50 9 -19 40 -80 70 -135 30 -55
62 -116 71 -135 9 -19 25 -45 35 -59 10 -13 19 -31 19 -41 0 -10 8 -28 18 -41
11 -13 24 -39 30 -57 6 -18 20 -45 32 -59 11 -14 20 -33 20 -42 0 -9 11 -29
25 -45 14 -16 25 -37 25 -46 0 -9 11 -31 25 -50 14 -19 25 -42 25 -51 0 -10
11 -31 25 -47 13 -16 40 -60 60 -98 20 -38 40 -76 45 -84 5 -8 18 -35 29 -60
27 -60 102 -199 124 -230 9 -13 17 -32 17 -40 0 -9 11 -31 25 -50 14 -19 25
-41 25 -50 0 -9 11 -31 25 -50 14 -19 25 -42 25 -51 0 -10 11 -30 25 -45 14
-15 25 -35 25 -45 0 -9 11 -31 25 -47 14 -17 25 -39 25 -50 0 -11 11 -34 25
-50 13 -16 41 -62 62 -103 20 -41 40 -75 44 -77 4 -2 15 -25 24 -53 9 -27 20
-51 25 -54 4 -3 29 -47 54 -99 25 -52 50 -98 56 -101 5 -3 10 -14 10 -24 0
-10 9 -30 20 -44 12 -14 26 -41 32 -59 6 -18 19 -42 28 -53 10 -11 21 -33 24
-50 4 -16 16 -39 26 -50 9 -11 23 -37 30 -57 6 -21 15 -38 20 -38 4 0 27 -37
51 -82 66 -128 152 -295 173 -336 10 -20 24 -44 31 -52 7 -8 18 -32 24 -52 7
-20 18 -42 26 -48 7 -6 17 -24 20 -40 3 -15 15 -36 25 -45 11 -10 22 -33 26
-51 3 -18 14 -40 24 -49 11 -10 22 -31 26 -49 3 -17 14 -40 24 -51 23 -27 159
-278 217 -400 8 -16 20 -41 28 -55 7 -14 33 -63 56 -110 23 -47 50 -96 61
-109 10 -13 18 -31 18 -40 0 -10 11 -32 25 -51 14 -19 25 -40 25 -48 0 -8 11
-27 25 -44 14 -16 25 -37 25 -46 0 -9 11 -32 23 -51 46 -70 62 -97 127 -226
36 -71 73 -141 82 -155 9 -14 19 -36 23 -50 8 -24 30 -56 80 -113 14 -15 25
-37 25 -48 0 -12 11 -34 25 -51 14 -16 25 -39 25 -50 0 -11 11 -33 25 -50 14
-16 25 -37 25 -47 0 -9 11 -32 25 -51 14 -19 25 -42 25 -53 0 -11 11 -32 25
-49 14 -16 25 -39 25 -50 0 -11 11 -33 25 -50 14 -16 25 -39 25 -50 0 -11 11
-33 25 -50 14 -16 25 -39 25 -50 0 -11 11 -33 25 -50 14 -16 25 -37 25 -45 0
-16 63 -118 79 -127 5 -3 12 -21 15 -40 4 -18 15 -41 25 -50 11 -10 22 -32 25
-50 4 -18 15 -41 25 -50 11 -10 22 -32 25 -50 4 -18 15 -41 25 -50 11 -10 22
-32 25 -50 4 -18 15 -41 26 -51 10 -9 22 -31 26 -49 3 -17 14 -40 24 -51 10
-11 21 -34 24 -51 4 -18 15 -39 26 -49 10 -9 21 -31 24 -49 4 -18 15 -41 26
-51 11 -10 22 -33 26 -51 3 -18 14 -40 24 -49 11 -10 22 -31 26 -49 3 -17 14
-40 24 -51 10 -11 23 -39 29 -61 6 -23 17 -44 25 -47 7 -3 17 -22 20 -41 4
-20 15 -44 25 -54 19 -17 100 -167 198 -364 29 -59 57 -110 62 -113 5 -3 12
-18 16 -34 3 -16 17 -43 31 -62 13 -18 24 -40 24 -49 0 -9 9 -25 19 -34 11
-10 23 -32 27 -50 4 -17 17 -44 30 -59 13 -16 24 -37 24 -48 0 -10 9 -28 21
-40 11 -11 49 -77 85 -147 35 -70 69 -134 74 -142 5 -8 15 -28 23 -45 54 -110
165 -324 180 -345 9 -13 17 -31 17 -38 0 -8 11 -27 25 -44 14 -16 25 -37 25
-47 0 -9 12 -33 26 -52 14 -19 40 -63 59 -99 18 -36 68 -134 111 -218 44 -84
102 -197 129 -252 28 -55 56 -105 63 -112 7 -7 12 -19 12 -28 0 -9 11 -31 25
-50 14 -19 25 -42 25 -51 0 -10 11 -30 23 -46 13 -15 27 -40 30 -54 4 -14 17
-38 31 -53 13 -16 63 -106 110 -200 177 -348 234 -458 245 -469 6 -6 11 -18
11 -27 0 -9 11 -31 24 -49 14 -19 28 -46 31 -61 3 -15 19 -40 36 -56 29 -28
30 -28 57 -11 15 9 43 24 62 33 19 9 45 25 59 35 13 10 32 19 42 19 10 0 26 8
36 18 31 31 87 69 113 77 14 4 39 18 57 31 17 13 38 24 45 24 7 0 38 19 68 41
30 23 73 50 95 61 64 31 119 62 145 81 14 9 32 17 42 17 9 0 31 13 49 29 18
17 60 44 94 60 35 17 68 38 75 46 7 8 21 15 30 15 10 0 31 10 47 23 52 41 90
66 127 81 20 8 44 22 52 31 9 8 23 15 33 15 10 0 28 11 40 24 12 13 37 27 54
30 17 4 43 17 57 30 24 24 116 77 190 112 19 9 43 23 53 32 23 20 150 96 204
121 23 11 56 32 72 47 l31 27 -20 31 c-27 41 -110 212 -110 225 0 6 -4 11 -8
11 -5 0 -30 43 -56 95 -26 52 -51 97 -56 100 -5 3 -11 18 -15 34 -3 16 -13 35
-20 41 -8 6 -19 28 -26 48 -6 20 -19 46 -29 57 -9 11 -22 35 -29 54 -6 19 -17
42 -25 50 -7 9 -19 33 -26 54 -6 20 -15 37 -20 37 -5 0 -14 17 -20 38 -7 20
-21 46 -31 57 -10 11 -25 36 -34 55 -8 19 -27 53 -40 75 -14 22 -46 83 -71
135 -26 52 -52 102 -59 110 -7 8 -18 32 -24 52 -7 20 -18 42 -26 48 -7 6 -17
24 -20 40 -3 16 -15 39 -26 51 -11 12 -22 34 -26 48 -3 14 -17 39 -30 54 -12
16 -23 36 -23 46 0 9 -11 32 -25 51 -14 19 -25 42 -25 52 0 10 -9 27 -20 38
-18 18 -82 134 -203 370 -58 114 -76 147 -94 180 -8 14 -21 41 -30 60 -8 19
-24 45 -34 59 -10 13 -19 32 -19 42 0 9 -11 31 -25 47 -14 17 -25 39 -25 51 0
12 -9 30 -20 41 -21 21 -69 109 -181 330 -40 80 -79 151 -86 158 -7 7 -13 22
-13 32 0 10 -11 32 -25 48 -14 17 -25 36 -25 45 0 8 -11 31 -25 51 -14 20 -25
43 -25 51 0 7 -11 26 -23 42 -13 15 -27 42 -31 58 -4 17 -16 39 -26 50 -10 11
-46 74 -80 140 -34 66 -68 127 -75 135 -7 8 -15 27 -19 42 -3 15 -13 34 -22
42 -9 9 -20 31 -25 50 -5 18 -18 43 -29 56 -11 13 -20 31 -20 40 0 10 -9 29
-20 43 -12 14 -26 41 -32 59 -6 18 -19 42 -28 53 -10 11 -20 32 -24 47 -3 15
-13 34 -21 42 -9 8 -21 30 -27 48 -6 18 -19 42 -28 53 -10 11 -35 54 -56 95
-22 41 -41 77 -44 80 -3 3 -37 68 -74 145 -38 77 -74 147 -81 155 -7 8 -16 26
-20 39 -4 12 -18 39 -31 58 -13 20 -24 43 -24 53 0 9 -9 25 -20 35 -11 10 -20
26 -20 35 0 9 -11 38 -25 65 -15 28 -28 72 -32 109 -3 35 -14 76 -27 96 -20
33 -21 48 -21 271 0 222 1 238 20 259 14 16 21 43 26 100 5 54 13 87 27 106
11 16 23 47 27 69 4 21 15 51 25 65 10 14 25 41 33 61 17 42 122 167 206 247
63 60 120 102 171 127 70 33 118 60 136 76 11 9 46 31 79 49 33 19 71 42 84
52 13 10 30 18 38 18 8 0 28 11 45 25 16 14 38 25 47 25 10 0 30 9 45 21 14
11 43 25 64 31 20 5 45 17 54 25 26 23 234 37 411 28 128 -6 151 -10 166 -26
11 -13 38 -22 72 -26 35 -4 64 -14 82 -30 16 -12 39 -23 51 -23 13 0 35 -11
50 -25 15 -14 35 -25 45 -25 10 0 24 -6 30 -14 7 -8 31 -23 54 -35 23 -11 87
-65 142 -119 111 -110 116 -116 139 -160 8 -16 20 -32 24 -34 11 -4 62 -82 83
-129 9 -20 22 -40 28 -43 6 -4 11 -15 11 -25 0 -10 11 -35 25 -55 14 -20 25
-43 25 -51 0 -7 11 -26 23 -42 13 -15 27 -41 31 -58 4 -16 15 -39 25 -50 20
-23 96 -157 159 -285 23 -47 46 -92 51 -100 5 -8 16 -31 25 -50 9 -19 20 -42
25 -50 12 -18 32 -58 61 -120 12 -25 27 -52 34 -60 8 -8 19 -31 25 -52 7 -20
18 -39 26 -41 7 -3 16 -21 20 -39 4 -18 15 -42 26 -53 10 -11 25 -36 34 -55 9
-19 29 -57 45 -85 16 -27 49 -90 74 -140 26 -49 51 -97 56 -105 5 -8 16 -31
25 -50 8 -19 22 -46 30 -60 16 -27 35 -66 61 -120 9 -19 25 -45 35 -59 10 -13
19 -31 19 -40 0 -10 11 -32 25 -51 14 -19 25 -41 25 -50 0 -10 11 -29 25 -44
14 -15 25 -37 25 -48 0 -12 11 -33 24 -47 14 -15 52 -81 85 -148 34 -67 65
-125 70 -128 5 -3 12 -18 16 -34 3 -16 17 -43 31 -62 13 -18 24 -40 24 -49 0
-9 9 -25 19 -34 11 -10 23 -31 26 -46 3 -15 17 -42 31 -61 13 -18 24 -40 24
-49 0 -9 11 -31 25 -50 14 -19 25 -42 25 -51 0 -10 11 -31 25 -47 14 -17 25
-39 25 -50 0 -12 13 -35 28 -52 16 -17 66 -104 111 -193 85 -167 104 -204 127
-247 7 -14 24 -48 38 -76 13 -28 29 -55 35 -58 6 -4 11 -15 11 -25 0 -10 9
-30 20 -44 12 -14 26 -41 32 -59 6 -18 19 -42 28 -53 17 -19 86 -144 117 -210
8 -16 18 -37 23 -45 5 -8 32 -60 60 -115 107 -210 139 -270 150 -283 6 -7 18
-33 27 -57 8 -25 19 -45 23 -45 5 0 14 -17 20 -37 7 -21 21 -47 31 -58 10 -12
22 -35 25 -52 3 -18 17 -42 30 -54 13 -12 24 -26 24 -31 0 -5 20 -43 44 -86
24 -42 49 -94 57 -114 11 -33 16 -37 38 -31 14 3 30 10 36 14 5 5 17 9 26 9 9
0 31 12 48 28 31 27 127 83 206 120 22 11 46 27 54 36 7 9 21 16 31 16 9 0 34
14 55 30 21 17 41 30 45 30 4 0 17 9 30 20 13 11 28 20 35 20 7 0 28 11 48 24
19 13 45 27 57 31 13 4 43 23 69 42 25 19 68 46 96 59 79 39 109 55 130 74 19
17 138 86 213 124 20 10 44 24 52 31 8 7 26 16 40 20 14 4 34 15 45 25 11 10
34 25 50 34 17 9 48 28 70 41 22 13 60 34 85 46 24 12 50 28 58 35 7 8 25 17
40 21 14 3 50 26 80 50 29 23 59 43 66 43 7 0 29 11 49 24 19 13 46 27 58 31
13 4 38 20 56 35 17 15 37 30 43 32 9 3 5 19 -13 53 -14 28 -36 73 -50 101
-14 28 -30 55 -36 58 -6 4 -11 15 -11 25 0 9 -11 32 -25 51 -14 19 -25 41 -25
51 0 9 -9 28 -20 42 -12 14 -26 41 -32 59 -6 18 -19 42 -28 53 -10 11 -21 34
-24 50 -4 17 -18 41 -31 55 -13 14 -40 59 -60 100 -20 41 -49 98 -65 125 -16
28 -32 57 -35 65 -11 25 -34 74 -43 90 -5 8 -17 29 -26 45 -9 17 -24 46 -32
65 -8 19 -19 42 -24 50 -6 8 -20 35 -31 60 -11 25 -26 52 -33 60 -8 8 -19 32
-26 53 -6 20 -15 37 -20 37 -5 0 -14 17 -20 38 -7 20 -21 46 -30 57 -10 11
-22 34 -26 50 -3 17 -17 41 -30 55 -12 14 -28 36 -33 50 -6 14 -16 32 -21 40
-6 8 -17 31 -25 50 -9 19 -38 76 -65 125 -53 97 -61 111 -85 165 -26 57 -56
114 -70 130 -7 8 -17 30 -23 48 -6 18 -20 45 -32 59 -11 14 -20 33 -20 43 0 9
-9 25 -19 34 -11 10 -23 32 -27 50 -4 17 -17 44 -30 59 -13 16 -24 38 -24 50
0 11 -9 31 -21 43 -19 20 -89 146 -125 224 -9 19 -22 42 -29 50 -7 8 -16 26
-20 40 -4 14 -18 41 -31 60 -13 19 -24 41 -24 49 0 8 -11 29 -25 47 -14 18
-25 39 -25 46 0 7 -11 30 -25 50 -14 20 -25 43 -25 51 0 7 -11 28 -25 47 -14
19 -25 42 -25 51 0 10 -11 31 -25 47 -14 17 -25 37 -25 47 0 9 -13 33 -29 53
-17 20 -67 110 -113 200 -46 90 -114 225 -153 300 -38 76 -78 148 -87 162 -10
13 -18 32 -18 40 0 9 -11 31 -24 49 -14 19 -28 46 -31 62 -4 15 -13 33 -20 39
-19 16 -69 107 -172 310 -46 91 -88 172 -93 180 -11 19 -33 63 -60 120 -12 25
-27 52 -35 60 -7 8 -16 26 -20 40 -4 14 -15 34 -25 45 -9 11 -21 34 -24 50 -4
17 -16 39 -25 50 -10 11 -22 34 -25 50 -4 17 -16 39 -26 50 -16 18 -40 61
-167 305 -18 36 -38 72 -43 80 -5 8 -16 31 -25 50 -22 49 -110 217 -122 232
-6 7 -16 29 -22 50 -7 20 -18 39 -26 42 -8 3 -17 21 -21 40 -3 20 -15 45 -25
58 -11 12 -22 33 -26 47 -3 14 -16 37 -28 51 -12 14 -39 59 -60 100 -21 41
-62 120 -91 175 -29 55 -72 138 -95 185 -24 47 -54 101 -68 120 -14 19 -26 36
-26 37 -2 5 -77 -36 -94 -50 -9 -8 -27 -18 -41 -22 -14 -4 -34 -15 -45 -25
-11 -9 -67 -43 -125 -74 -58 -32 -112 -62 -120 -67 -8 -5 -37 -21 -65 -35 -27
-13 -63 -32 -80 -41 -16 -9 -35 -19 -41 -22 -6 -3 -37 -23 -69 -44 -32 -21
-69 -43 -83 -48 -13 -5 -36 -18 -50 -29 -13 -11 -32 -20 -42 -20 -9 0 -25 -9
-34 -19 -10 -11 -31 -23 -47 -26 -16 -4 -44 -19 -61 -35 -17 -15 -76 -52 -132
-80 -131 -68 -203 -108 -257 -145 -24 -16 -60 -38 -79 -47 -34 -18 -66 -35
-120 -65 -14 -8 -41 -21 -60 -30 -19 -8 -45 -24 -59 -34 -13 -10 -31 -19 -40
-19 -9 0 -41 -19 -71 -41 -30 -23 -73 -50 -95 -61 -64 -31 -119 -62 -145 -80
-14 -10 -32 -18 -41 -18 -10 0 -30 -10 -46 -23 -31 -26 -191 -116 -240 -136
-18 -8 -33 -17 -33 -21 0 -4 -20 -15 -45 -24 -25 -10 -45 -21 -45 -26 0 -5
-17 -14 -37 -21 -21 -6 -46 -20 -56 -31 -11 -11 -29 -24 -40 -29 -12 -6 -44
-23 -72 -39 -27 -16 -71 -39 -97 -51 -27 -12 -48 -25 -48 -30 0 -4 -17 -13
-37 -19 -21 -7 -47 -20 -58 -30 -11 -10 -35 -26 -54 -36 -19 -11 -55 -31 -80
-46 -25 -14 -62 -34 -81 -43 -19 -8 -41 -22 -50 -29 -8 -8 -26 -17 -40 -21
-14 -4 -34 -15 -45 -25 -11 -10 -33 -22 -50 -26 -16 -3 -41 -16 -55 -28 -42
-36 -88 -66 -102 -66 -7 0 -33 -14 -57 -30 -24 -17 -49 -30 -56 -30 -6 0 -26
-11 -45 -25 -19 -14 -40 -25 -47 -25 -7 0 -34 -16 -60 -36 -26 -20 -70 -47
-98 -60 -86 -42 -129 -66 -154 -85 -13 -11 -32 -19 -41 -19 -10 0 -23 -7 -30
-15 -11 -13 -107 -71 -205 -122 -16 -9 -41 -23 -55 -30 -14 -8 -41 -21 -60
-30 -19 -8 -45 -24 -59 -34 -13 -10 -31 -19 -41 -19 -9 0 -25 -10 -36 -21 -10
-12 -32 -28 -49 -36 -16 -8 -52 -27 -80 -44 -27 -16 -68 -38 -90 -49 -22 -11
-51 -27 -65 -34 -84 -46 -141 -65 -215 -71 -53 -5 -89 -13 -107 -26 -38 -27
-214 -28 -249 -1 -17 13 -54 22 -120 29 -74 7 -103 15 -124 31 -15 12 -38 22
-51 22 -12 0 -36 11 -52 25 -17 14 -37 25 -45 25 -21 0 -126 87 -202 167 -73
76 -155 177 -155 190 0 6 -13 30 -30 54 -16 24 -30 51 -30 60 0 8 -11 30 -25
49 -14 19 -25 41 -25 50 0 9 -11 31 -25 50 -14 19 -25 41 -25 50 0 9 -11 31
-25 50 -14 19 -25 41 -25 50 0 9 -11 31 -25 50 -14 19 -25 42 -25 51 0 10 -11
30 -25 45 -14 15 -25 37 -25 50 0 12 -11 35 -24 51 -13 16 -26 49 -30 78 -4
28 -16 59 -27 70 -15 17 -20 43 -25 125 -4 61 -12 114 -20 127 -18 29 -17 123
1 147 9 12 15 43 15 80 0 88 16 186 34 205 8 9 20 37 25 61 13 56 84 194 123
240 107 124 268 270 299 270 6 0 24 11 41 25 16 14 38 25 49 25 10 0 27 8 37
18 22 22 116 82 128 82 6 0 25 11 44 25 19 14 40 25 48 25 9 0 30 11 48 25 18
14 39 25 48 25 8 0 27 10 43 23 52 41 87 63 176 108 147 74 164 83 183 100 11
9 54 35 96 59 43 23 80 46 84 51 3 5 14 9 24 9 10 0 32 11 48 25 17 14 36 25
45 25 8 0 30 11 50 24 19 13 46 27 58 31 13 4 33 15 44 25 11 10 35 26 54 36
19 11 55 31 80 46 25 14 62 34 81 43 19 8 41 22 50 29 8 7 32 19 53 26 20 6
37 15 37 20 0 5 28 25 63 44 146 81 194 107 236 126 24 11 57 31 73 45 16 13
57 38 91 56 70 35 106 55 157 87 19 12 42 22 51 22 9 0 24 9 33 19 10 11 28
22 42 25 13 4 47 24 76 46 28 21 72 46 97 56 25 9 57 25 70 36 13 10 29 18 36
18 6 0 20 9 29 19 10 11 31 23 47 26 16 4 39 15 52 26 32 27 96 69 107 69 7 0
64 31 130 71 8 5 38 20 67 34 28 13 54 29 58 34 3 6 24 15 45 21 22 6 40 14
40 19 0 9 113 81 127 81 5 0 24 11 43 25 19 14 40 25 48 25 8 0 27 11 44 25
16 14 38 25 49 25 10 0 27 8 37 18 11 11 54 38 98 62 43 24 101 57 129 72 27
16 66 36 85 44 19 9 45 25 59 35 13 10 32 19 41 19 10 0 32 12 49 28 32 28
126 82 217 125 28 14 55 30 58 36 4 6 16 11 26 11 11 0 34 13 52 28 18 15 44
33 58 40 14 7 43 23 65 37 22 13 63 35 91 48 28 14 54 29 58 35 3 6 19 13 35
17 16 3 37 15 46 25 10 11 33 22 52 26 18 3 37 13 42 22 9 16 126 84 211 123
25 11 52 26 60 34 8 7 26 16 40 20 14 4 39 20 56 35 18 15 62 43 99 61 116 58
140 71 155 84 8 7 32 18 53 25 20 6 37 15 37 19 0 9 128 84 258 151 48 25 98
53 112 63 13 9 31 17 39 17 8 0 26 11 40 25 25 23 127 81 217 124 23 11 45 24
48 29 3 6 21 14 39 17 17 4 48 17 67 28 34 21 80 26 305 35 17 0 90 -3 162 -7z"/>
</g>
</svg>
